<?xml version="1.0" standalone="no"?>
<!DOCTYPE svg PUBLIC "-//W3C//DTD SVG 20010904//EN"
 "http://www.w3.org/TR/2001/REC-SVG-20010904/DTD/svg10.dtd">
<svg version="1.0" xmlns="http://www.w3.org/2000/svg"
 width="150.000000pt" height="46.000000pt" viewBox="0 0 150.000000 46.000000"
 preserveAspectRatio="xMidYMid meet">

<g transform="translate(0.000000,46.000000) scale(0.100000,-0.100000)"
fill="#000000" stroke="none">
<path d="M0 230 l0 -230 750 0 750 0 0 230 0 230 -750 0 -750 0 0 -230z m285
169 c49 -14 87 -40 116 -80 l21 -30 -47 33 c-41 29 -55 33 -109 33 -51 0 -70
-5 -104 -28 -79 -52 -106 -165 -62 -252 l21 -40 -35 38 c-73 82 -70 194 9 273
56 56 117 73 190 53z m202 -261 c-1 -51 -3 -10 -3 92 0 102 2 143 3 93 2 -51
2 -135 0 -185z m141 139 c3 -92 2 -97 -18 -97 -19 0 -20 6 -20 101 0 90 2 100
18 97 14 -3 17 -17 20 -101z m396 93 c38 -14 23 -40 -21 -37 -51 3 -51 -15 0
-40 47 -23 59 -45 46 -81 -15 -40 -88 -52 -127 -20 -22 18 4 39 33 26 27 -12
59 -4 53 14 -3 7 -22 22 -44 33 -88 45 -34 141 60 105z m104 -93 l3 -97 -26 0
c-25 0 -25 0 -25 93 0 97 4 110 30 105 12 -3 16 -22 18 -101z m147 90 c27 -20
10 -37 -30 -30 -50 8 -47 -19 5 -42 43 -19 55 -42 46 -81 -11 -42 -95 -56
-125 -21 -19 24 2 38 37 25 25 -10 34 -10 44 1 14 14 8 20 -51 53 -24 13 -31
24 -31 47 0 50 62 79 105 48z m185 -7 c0 -15 -7 -20 -25 -20 -25 0 -25 -1 -25
-80 0 -79 0 -80 -25 -80 -25 0 -25 1 -25 80 0 79 0 80 -25 80 -24 0 -34 18
-18 33 3 4 37 7 75 7 61 0 68 -2 68 -20z m-670 -50 c5 -10 10 -44 10 -74 0
-49 -3 -56 -19 -56 -17 0 -20 8 -23 53 -3 44 -6 52 -23 52 -17 0 -20 -8 -23
-52 -3 -45 -6 -53 -23 -53 -17 0 -19 7 -19 73 l0 73 55 2 c44 1 57 -2 65 -18z
m-491 0 c33 -9 91 -55 91 -72 0 -4 -16 4 -36 17 -44 30 -88 32 -132 5 -64 -39
-88 -110 -57 -170 19 -37 7 -39 -19 -3 -11 15 -21 48 -23 77 -5 65 21 110 80
136 49 23 52 23 96 10z m41 -75 c16 -8 35 -25 41 -38 12 -22 12 -22 -9 -4 -11
10 -38 21 -59 24 -75 10 -133 -71 -99 -139 21 -42 14 -47 -14 -8 -71 100 32
221 140 165z m538 -29 c6 -29 -15 -43 -35 -24 -14 14 -14 20 -3 33 16 19 34
15 38 -9z m-540 -42 c32 -22 27 -73 -9 -93 -24 -13 -29 -13 -53 2 -34 22 -36
69 -4 91 28 20 38 20 66 0z m382 -49 c0 -14 -4 -25 -9 -25 -5 0 -8 8 -6 18 2
9 4 20 4 25 2 19 11 4 11 -18z m297 -12 c-3 -10 -5 -4 -5 12 0 17 2 24 5 18 2
-7 2 -21 0 -30z m180 0 c-3 -10 -5 -4 -5 12 0 17 2 24 5 18 2 -7 2 -21 0 -30z
m20 -10 c-3 -10 -5 -2 -5 17 0 19 2 27 5 18 2 -10 2 -26 0 -35z m-411 17 c0
-11 -4 -20 -8 -20 -4 0 -8 9 -8 20 0 11 4 20 8 20 4 0 8 -9 8 -20z m112 -5
c-1 -14 -6 -25 -10 -25 -4 0 -7 11 -6 25 1 14 6 25 10 25 4 0 7 -11 6 -25z
m172 17 c0 -4 -5 -13 -12 -20 -9 -9 -9 -12 0 -12 7 0 12 -4 12 -10 0 -5 -9
-10 -20 -10 -13 0 -18 5 -15 15 3 8 7 22 10 30 5 16 25 21 25 7z m43 -12 c-3
-11 -7 -20 -9 -20 -2 0 -4 9 -4 20 0 11 4 20 9 20 5 0 7 -9 4 -20z m121 -2
c-6 -22 -6 -22 12 -7 22 19 54 21 54 4 0 -6 -6 -12 -12 -12 -7 0 -28 -3 -47
-8 -29 -6 -33 -5 -28 10 4 9 7 21 7 26 0 5 5 9 11 9 6 0 8 -9 3 -22z m-649 -9
c-6 -33 -15 -36 -15 -6 0 15 4 27 9 27 6 0 8 -10 6 -21z m45 6 c0 -6 -7 -12
-15 -12 -8 0 -15 6 -15 12 0 6 7 12 15 12 8 0 15 -6 15 -12z m17 -7 c-3 -8 -6
-5 -6 6 -1 11 2 17 5 13 3 -3 4 -12 1 -19z m20 0 c-3 -8 -6 -5 -6 6 -1 11 2
17 5 13 3 -3 4 -12 1 -19z m45 -20 c-6 -6 -7 0 -4 19 5 21 7 23 10 9 2 -10 0
-22 -6 -28z m48 31 c0 -4 -7 -9 -15 -13 -9 -3 -15 0 -15 8 0 7 7 13 15 13 8 0
15 -4 15 -8z m42 -31 c-6 -6 -7 0 -4 19 5 21 7 23 10 9 2 -10 0 -22 -6 -28z
m48 31 c0 -4 -7 -9 -15 -13 -9 -3 -15 0 -15 8 0 7 7 13 15 13 8 0 15 -4 15 -8z
m90 -4 c0 -6 -7 -12 -15 -12 -8 0 -15 6 -15 12 0 6 7 12 15 12 8 0 15 -6 15
-12z m40 -1 c0 -8 -5 -12 -10 -9 -6 4 -8 11 -5 16 9 14 15 11 15 -7z m50 1 c0
-8 -4 -15 -10 -15 -5 0 -10 7 -10 15 0 8 5 15 10 15 6 0 10 -7 10 -15z m57 -7
c-3 -8 -6 -5 -6 6 -1 11 2 17 5 13 3 -3 4 -12 1 -19z m73 7 c0 -6 -7 -12 -15
-12 -8 0 -15 6 -15 12 0 6 7 12 15 12 8 0 15 -6 15 -12z m220 -3 c0 -7 -4 -11
-9 -8 -5 3 -12 -1 -15 -10 -5 -14 -8 -14 -21 0 -24 23 -18 37 15 34 17 -1 30
-8 30 -16z m17 -4 c-3 -8 -6 -5 -6 6 -1 11 2 17 5 13 3 -3 4 -12 1 -19z"/>
</g>
</svg>
